<svg width="132" height="88" viewBox="0 0 132 88" fill="none" xmlns="http://www.w3.org/2000/svg">
<g style="mix-blend-mode:luminosity">
<path d="M65.4096 0.223858C65.9316 0.410402 66.0062 1.90275 66.0062 13.0954C66.0062 26.7504 65.6333 31.5259 63.9927 38.0549C57.5791 63.5368 36.6977 82.7881 10.8198 87.0786C5.41298 87.974 0.714676 88.2352 0.341795 87.6382C-0.0310864 87.0413 -0.142952 67.5661 0.229929 66.6334C0.379082 66.223 0.938402 66.0365 1.87061 66.0365C6.41976 66.0365 13.5418 64.283 18.5757 61.9325C23.2367 59.7313 26.6299 57.3435 30.6943 53.3888C36.3621 47.8671 40.1655 41.5619 42.3282 34.1375C43.3723 30.5559 44.3045 23.691 43.8943 22.6464C43.6706 22.0495 41.9927 22.0122 22.0435 22.0122C2.69095 22.0122 0.453658 21.9375 0.229929 21.4152C-0.0683757 20.669 -0.0683757 1.34312 0.229929 0.596945C0.453658 0.074623 3.62315 3.24729e-06 32.6333 3.24729e-06C50.3452 3.24729e-06 65.074 0.111932 65.4096 0.223858ZM131.783 0.596945C132.118 1.41774 132.044 21.0048 131.708 21.4898C131.559 21.7137 130.105 22.0122 128.464 22.1614C117.538 23.1314 108.03 27.6831 100.423 35.5552C95.1283 41.0396 91.735 46.8225 89.6842 53.9111C88.6401 57.4928 87.7079 64.3576 88.1181 65.4022C88.3418 65.9991 90.0198 66.0365 109.969 66.0365C129.321 66.0365 131.559 66.1111 131.783 66.6334C132.118 67.4915 132.044 87.0413 131.708 87.6009C131.447 87.974 124.623 88.0486 98.7825 87.974L66.1927 87.8621V73.6848C66.1927 58.3509 66.4164 55.7766 68.5045 48.3148C73.9859 28.5039 88.7147 12.2373 108.142 4.55166C113.138 2.5743 118.023 1.38043 124.362 0.559634C129.769 -0.111923 131.521 -0.111921 131.783 0.596945Z" fill="black"/>
</g>
</svg>
